# xmcd
#
# Track frame offsets:
#	150
#	18101
#	35809
#	56623
#	78669
#	95140
#	123859
#
# Disc length: 4748 seconds
#
# Revision: 1416840056
# Processed by: cddbd v1.5.2PL0 Copyright (c) Steve Scherf et al.
# Submitted via: EZCDAudioConverter 8.5.0.1
#
DISCID=56128a07
DTITLE=Taylor Swift - Speak Now (Deluxe Edition) CD-2
DYEAR=2010
DGENRE=Country
TTITLE0=Ours
TTITLE1=If This Was a Movie
TTITLE2=Superman
TTITLE3=Back to December (acoustic)
TTITLE4=Haunted (acoustic)
TTITLE5=Mine (POP mix)
TTITLE6=Data
EXTD=
EXTT0=
EXTT1=
EXTT2=
EXTT3=
EXTT4=
EXTT5=
EXTT6=
PLAYORDER=
